<mxfile host="app.diagrams.net" modified="2024-07-26T13:25:18.871Z" agent="Mozilla/5.0 (X11; Linux x86_64) AppleWebKit/537.36 (KHTML, like Gecko) Chrome/127.0.0.0 Safari/537.36" etag="a1-2h0Mo-FCBIdZzizIU" version="24.7.1" type="google">
  <diagram name="Pagina-1" id="_i0dLer2ERg865YXhRxN">
    <mxGraphModel grid="1" page="1" gridSize="10" guides="1" tooltips="1" connect="1" arrows="1" fold="1" pageScale="1" pageWidth="827" pageHeight="1169" math="0" shadow="0">
      <root>
        <mxCell id="0" />
        <mxCell id="1" parent="0" />
        <mxCell id="dupEteglUWeH3CLUeUaz-1" value="ViewModule" style="swimlane;whiteSpace=wrap;html=1;" vertex="1" parent="1">
          <mxGeometry x="580" y="180" width="200" height="200" as="geometry" />
        </mxCell>
        <mxCell id="dupEteglUWeH3CLUeUaz-16" style="edgeStyle=orthogonalEdgeStyle;rounded=0;orthogonalLoop=1;jettySize=auto;html=1;" edge="1" parent="dupEteglUWeH3CLUeUaz-1" source="dupEteglUWeH3CLUeUaz-12">
          <mxGeometry relative="1" as="geometry">
            <mxPoint x="95" y="220" as="targetPoint" />
          </mxGeometry>
        </mxCell>
        <mxCell id="dupEteglUWeH3CLUeUaz-17" value="draw a card" style="edgeLabel;html=1;align=center;verticalAlign=middle;resizable=0;points=[];" connectable="0" vertex="1" parent="dupEteglUWeH3CLUeUaz-16">
          <mxGeometry x="-0.2865" y="-1" relative="1" as="geometry">
            <mxPoint as="offset" />
          </mxGeometry>
        </mxCell>
        <mxCell id="dupEteglUWeH3CLUeUaz-12" value="gameView" style="rounded=0;whiteSpace=wrap;html=1;" vertex="1" parent="dupEteglUWeH3CLUeUaz-1">
          <mxGeometry x="40" y="140" width="110" height="30" as="geometry" />
        </mxCell>
        <mxCell id="dupEteglUWeH3CLUeUaz-5" style="edgeStyle=orthogonalEdgeStyle;rounded=0;orthogonalLoop=1;jettySize=auto;html=1;entryX=0;entryY=0.5;entryDx=0;entryDy=0;" edge="1" parent="1" source="dupEteglUWeH3CLUeUaz-2" target="dupEteglUWeH3CLUeUaz-1">
          <mxGeometry relative="1" as="geometry" />
        </mxCell>
        <mxCell id="dupEteglUWeH3CLUeUaz-9" value="start app" style="edgeLabel;html=1;align=center;verticalAlign=middle;resizable=0;points=[];" connectable="0" vertex="1" parent="dupEteglUWeH3CLUeUaz-5">
          <mxGeometry x="-0.0287" relative="1" as="geometry">
            <mxPoint as="offset" />
          </mxGeometry>
        </mxCell>
        <mxCell id="dupEteglUWeH3CLUeUaz-10" style="edgeStyle=orthogonalEdgeStyle;rounded=0;orthogonalLoop=1;jettySize=auto;html=1;exitX=1;exitY=0.75;exitDx=0;exitDy=0;" edge="1" parent="1" source="dupEteglUWeH3CLUeUaz-2">
          <mxGeometry relative="1" as="geometry">
            <mxPoint x="620" y="330.0689655172414" as="targetPoint" />
          </mxGeometry>
        </mxCell>
        <mxCell id="dupEteglUWeH3CLUeUaz-11" value="StartGameReceived" style="edgeLabel;html=1;align=center;verticalAlign=middle;resizable=0;points=[];" connectable="0" vertex="1" parent="dupEteglUWeH3CLUeUaz-10">
          <mxGeometry x="-0.1333" relative="1" as="geometry">
            <mxPoint as="offset" />
          </mxGeometry>
        </mxCell>
        <mxCell id="dupEteglUWeH3CLUeUaz-2" value="ControllerModule" style="swimlane;whiteSpace=wrap;html=1;" vertex="1" parent="1">
          <mxGeometry x="70" y="180" width="200" height="200" as="geometry" />
        </mxCell>
        <mxCell id="dupEteglUWeH3CLUeUaz-23" value="GameController" style="rounded=0;whiteSpace=wrap;html=1;" vertex="1" parent="dupEteglUWeH3CLUeUaz-2">
          <mxGeometry x="30" y="100" width="120" height="30" as="geometry" />
        </mxCell>
        <mxCell id="dupEteglUWeH3CLUeUaz-3" value="ModelModule" style="swimlane;whiteSpace=wrap;html=1;" vertex="1" parent="1">
          <mxGeometry x="320" y="610" width="200" height="200" as="geometry">
            <mxRectangle x="320" y="610" width="110" height="30" as="alternateBounds" />
          </mxGeometry>
        </mxCell>
        <mxCell id="dupEteglUWeH3CLUeUaz-22" value="ModelController" style="whiteSpace=wrap;html=1;" vertex="1" parent="dupEteglUWeH3CLUeUaz-3">
          <mxGeometry x="40" y="80" width="120" height="30" as="geometry" />
        </mxCell>
        <mxCell id="dupEteglUWeH3CLUeUaz-7" style="edgeStyle=orthogonalEdgeStyle;rounded=0;orthogonalLoop=1;jettySize=auto;html=1;" edge="1" parent="1" source="dupEteglUWeH3CLUeUaz-6">
          <mxGeometry relative="1" as="geometry">
            <mxPoint x="270" y="235" as="targetPoint" />
          </mxGeometry>
        </mxCell>
        <mxCell id="dupEteglUWeH3CLUeUaz-8" value="StartPressed" style="edgeLabel;html=1;align=center;verticalAlign=middle;resizable=0;points=[];" connectable="0" vertex="1" parent="dupEteglUWeH3CLUeUaz-7">
          <mxGeometry x="0.0915" relative="1" as="geometry">
            <mxPoint as="offset" />
          </mxGeometry>
        </mxCell>
        <mxCell id="dupEteglUWeH3CLUeUaz-6" value="menuController" style="whiteSpace=wrap;html=1;dashed=1;" vertex="1" parent="1">
          <mxGeometry x="610" y="220" width="100" height="30" as="geometry" />
        </mxCell>
        <mxCell id="dupEteglUWeH3CLUeUaz-14" value="" style="endArrow=classic;html=1;rounded=0;" edge="1" parent="1" target="dupEteglUWeH3CLUeUaz-3">
          <mxGeometry width="50" height="50" relative="1" as="geometry">
            <mxPoint x="420" y="340" as="sourcePoint" />
            <mxPoint x="490" y="400" as="targetPoint" />
          </mxGeometry>
        </mxCell>
        <mxCell id="dupEteglUWeH3CLUeUaz-19" style="edgeStyle=orthogonalEdgeStyle;rounded=0;orthogonalLoop=1;jettySize=auto;html=1;" edge="1" parent="1" source="dupEteglUWeH3CLUeUaz-18">
          <mxGeometry relative="1" as="geometry">
            <mxPoint x="160" y="380" as="targetPoint" />
          </mxGeometry>
        </mxCell>
        <mxCell id="dupEteglUWeH3CLUeUaz-20" value="draw a card" style="edgeLabel;html=1;align=center;verticalAlign=middle;resizable=0;points=[];" connectable="0" vertex="1" parent="dupEteglUWeH3CLUeUaz-19">
          <mxGeometry x="-0.0028" y="-2" relative="1" as="geometry">
            <mxPoint as="offset" />
          </mxGeometry>
        </mxCell>
        <mxCell id="dupEteglUWeH3CLUeUaz-18" value="DrawCardNotifier" style="rounded=0;whiteSpace=wrap;html=1;" vertex="1" parent="1">
          <mxGeometry x="615" y="400" width="120" height="30" as="geometry" />
        </mxCell>
        <mxCell id="dupEteglUWeH3CLUeUaz-21" style="edgeStyle=orthogonalEdgeStyle;rounded=0;orthogonalLoop=1;jettySize=auto;html=1;entryX=0.365;entryY=-0.008;entryDx=0;entryDy=0;entryPerimeter=0;" edge="1" parent="1" source="dupEteglUWeH3CLUeUaz-2" target="dupEteglUWeH3CLUeUaz-3">
          <mxGeometry relative="1" as="geometry">
            <Array as="points">
              <mxPoint x="170" y="430" />
              <mxPoint x="393" y="430" />
            </Array>
          </mxGeometry>
        </mxCell>
        <mxCell id="dupEteglUWeH3CLUeUaz-24" value="draw a card fo player p" style="edgeLabel;html=1;align=center;verticalAlign=middle;resizable=0;points=[];" connectable="0" vertex="1" parent="dupEteglUWeH3CLUeUaz-21">
          <mxGeometry x="-0.1208" y="-4" relative="1" as="geometry">
            <mxPoint as="offset" />
          </mxGeometry>
        </mxCell>
        <mxCell id="dupEteglUWeH3CLUeUaz-25" value="" style="endArrow=classic;html=1;rounded=0;entryX=0;entryY=1;entryDx=0;entryDy=0;" edge="1" parent="1" target="dupEteglUWeH3CLUeUaz-12">
          <mxGeometry width="50" height="50" relative="1" as="geometry">
            <mxPoint x="390" y="430" as="sourcePoint" />
            <mxPoint x="480" y="400" as="targetPoint" />
          </mxGeometry>
        </mxCell>
        <mxCell id="dupEteglUWeH3CLUeUaz-26" value="update GUI" style="edgeLabel;html=1;align=center;verticalAlign=middle;resizable=0;points=[];" connectable="0" vertex="1" parent="dupEteglUWeH3CLUeUaz-25">
          <mxGeometry x="0.0327" y="-2" relative="1" as="geometry">
            <mxPoint as="offset" />
          </mxGeometry>
        </mxCell>
      </root>
    </mxGraphModel>
  </diagram>
</mxfile>
